<svg width="135" height="457" viewBox="0 0 135 457" fill="none" xmlns="http://www.w3.org/2000/svg">
<g clip-path="url(#clip0_2957_739)">
<path fill-rule="evenodd" clip-rule="evenodd" d="M82.7418 429.302L77.5242 447.175L56.6656 447.961L55.2715 421.086L82.7418 429.302Z" fill="#F77F89"/>
<path fill-rule="evenodd" clip-rule="evenodd" d="M55.75 444.868V468.352L112.151 469.68C112.151 469.68 110.547 452.898 81.7065 452.624C81.8142 445.249 81.8261 444.868 81.8261 444.868H55.75Z" fill="#6367FD"/>
<path fill-rule="evenodd" clip-rule="evenodd" d="M30.0273 432.681L30.4163 450.28L52.1963 451.071L57.8567 431.484L30.0273 432.681Z" fill="#F77F89"/>
<path fill-rule="evenodd" clip-rule="evenodd" d="M62.9664 14.9617C86.6671 14.9617 91.5735 38.4205 91.5855 47.0359C91.5855 55.2462 90.0477 56.4992 90.1016 64.8217C90.1375 71.143 91.8967 75.5692 91.7351 79.16C90.8017 97.8622 66.5325 103.255 59.6036 103.361C52.6747 103.467 22.5059 97.3822 22.5059 82.8444C22.5059 72.7016 28.6988 56.4805 28.5313 45.2156C28.1603 21.8192 46.9365 14.9617 62.9664 14.9617Z" fill="black"/>
<path fill-rule="evenodd" clip-rule="evenodd" d="M29.9082 447.156L30.2313 470.659L85.5968 471.962C85.5968 471.962 85.5968 454.824 55.2723 454.506V447.156H29.9082Z" fill="#6367FD"/>
<path fill-rule="evenodd" clip-rule="evenodd" d="M24.4746 270.87L24.6182 435.281L64.1812 434.383L64.7795 426.771L90.2932 430.356L106.485 258.919L97.7427 215.019L39.9599 213.373L24.4746 270.87Z" fill="#3B4161"/>
<path fill-rule="evenodd" clip-rule="evenodd" d="M71.0865 340.729L94.8112 382.266L90.3056 429.919L64.75 426.802L71.0865 340.729Z" fill="#15192C"/>
<path fill-rule="evenodd" clip-rule="evenodd" d="M54.4402 228.166H96.4684L102.159 163.476L94.5657 113.902L80.2052 99.4956L65.8089 92.8002L39.8105 96.9396L54.4402 228.166Z" fill="#F7D167"/>
<path d="M37.9141 434.981L38.1893 260.097" stroke="#737999" stroke-width="1.7" stroke-linecap="round" stroke-linejoin="round"/>
<path fill-rule="evenodd" clip-rule="evenodd" d="M47.2182 92.0022C37.3933 92.2827 8.05612 103.379 3.77193 114.638C0.516896 123.179 -1.71495 200.456 5.93197 204.228C6.42287 204.475 6.93594 204.671 7.46375 204.814C7.00302 207.183 2.59916 262.036 3.71808 266.599C4.83699 271.163 7.7749 278.07 12.0292 277.821C28.4898 276.792 58.7305 254.281 61.7342 250.609C62.1949 243.652 63.4694 217.519 63.4694 217.519L60.8487 139.979L45.848 97.2513C45.848 97.2513 57.0431 91.7217 47.2182 92.0022Z" fill="white"/>
<path fill-rule="evenodd" clip-rule="evenodd" d="M68.627 91.516C85.5184 93.7041 109.363 107.35 112.432 113.566C115.017 118.79 113.707 186.423 113.707 186.423C113.707 186.423 104.133 200.107 108.447 219.788C112.408 237.941 113.581 262.448 109.429 267.03C102.583 263.42 93.7816 248.951 92.196 245.385C90.6104 241.819 90.1975 221.646 88.9769 217.332C87.7562 213.018 82.2933 136.644 82.2933 136.644C82.2933 136.644 79.7443 105.792 68.627 91.516Z" fill="white"/>
<path d="M26.1016 98.0118C34.6041 114.164 51.8307 132.573 60.7102 139.599" stroke="#C9C9C9" stroke-width="2" stroke-linecap="round" stroke-linejoin="round"/>
<path d="M77.1777 93.3675C84.7469 104.003 86.6975 122.075 80.7678 140.428" stroke="#C9C9C9" stroke-width="2" stroke-linecap="round" stroke-linejoin="round"/>
<path d="M34.6934 143.134C34.6934 141.745 35.0887 140.388 35.8292 139.233C36.5698 138.079 37.6224 137.179 38.8539 136.648C40.0853 136.117 41.4403 135.978 42.7474 136.25C44.0545 136.521 45.255 137.19 46.197 138.173C47.139 139.155 47.7802 140.406 48.0395 141.768C48.2988 143.13 48.1645 144.542 47.6537 145.825C47.1428 147.107 46.2783 148.203 45.1696 148.973C44.0608 149.744 42.7576 150.155 41.4248 150.153C39.639 150.152 37.9268 149.412 36.6646 148.095C35.4024 146.779 34.6934 144.995 34.6934 143.134V143.134Z" stroke="#353823" stroke-width="3.41" stroke-linecap="round" stroke-linejoin="round"/>
<path fill-rule="evenodd" clip-rule="evenodd" d="M37.9727 143.134C37.9727 142.425 38.1744 141.732 38.5525 141.142C38.9305 140.553 39.4679 140.094 40.0965 139.822C40.7252 139.551 41.417 139.48 42.0844 139.618C42.7518 139.757 43.3648 140.098 43.846 140.599C44.3272 141.101 44.6548 141.739 44.7876 142.435C44.9203 143.13 44.8522 143.851 44.5918 144.506C44.3314 145.161 43.8904 145.721 43.3246 146.114C42.7588 146.508 42.0936 146.719 41.4132 146.719C40.5007 146.719 39.6256 146.341 38.9804 145.669C38.3351 144.996 37.9727 144.085 37.9727 143.134Z" fill="#353823"/>
<path d="M39.6076 136.37C35.0601 118.971 34.7669 94.7576 46.5066 90.3938" stroke="#353823" stroke-width="3.41" stroke-linecap="round" stroke-linejoin="round"/>
<path d="M67.0059 87.4326C73.7014 90.3876 80.0798 104.015 81.5757 115.685" stroke="#353823" stroke-width="3.41" stroke-linecap="round" stroke-linejoin="round"/>
<path d="M74.3471 137.604C72.205 126.819 75.4361 117.032 81.5633 115.685C87.6904 114.339 94.3979 122.032 96.522 132.817C98.6462 143.602 95.433 153.389 89.3059 154.729C83.1788 156.07 76.4892 148.371 74.3471 137.604Z" stroke="#353823" stroke-width="3.41" stroke-linecap="round" stroke-linejoin="round"/>
<path d="M32.6786 120.641L30.0938 173.076" stroke="#C9C9C9" stroke-width="2" stroke-linecap="round" stroke-linejoin="round"/>
<path d="M25.4023 122.188L32.1218 131.95" stroke="#C9C9C9" stroke-width="2" stroke-linecap="round" stroke-linejoin="round"/>
<path fill-rule="evenodd" clip-rule="evenodd" d="M47.8583 168.906L22.0215 175.345L47.8583 168.906Z" fill="#606060"/>
<path d="M47.8583 168.906L22.0215 175.345" stroke="#C9C9C9" stroke-width="2" stroke-linecap="round" stroke-linejoin="round"/>
<path d="M23.3262 168.145L29.908 173.382" stroke="#C9C9C9" stroke-width="2" stroke-linecap="round" stroke-linejoin="round"/>
<path d="M48.8392 199.272C37.9731 203.829 12.1603 209.277 7.28369 204.764C0.761662 198.723 -1.09323 136.376 2.17975 119.837C4.0885 110.212 13.7279 104.015 18.7541 101.522" stroke="#C9C9C9" stroke-width="2" stroke-linecap="round" stroke-linejoin="round"/>
<path d="M41.0727 201.94C37.9733 197.844 36.7885 177.421 38.2844 171.293" stroke="#C9C9C9" stroke-width="2" stroke-linecap="round" stroke-linejoin="round"/>
<path fill-rule="evenodd" clip-rule="evenodd" d="M41.4141 175.283C41.4129 174.957 41.5045 174.638 41.6774 174.367C41.8502 174.095 42.0965 173.884 42.3851 173.758C42.6736 173.633 42.9914 173.599 43.2982 173.662C43.605 173.725 43.8871 173.881 44.1086 174.111C44.3301 174.341 44.4811 174.634 44.5426 174.953C44.604 175.273 44.5731 175.604 44.4537 175.905C44.3343 176.206 44.1318 176.464 43.8719 176.645C43.612 176.826 43.3064 176.923 42.9937 176.923C42.7866 176.923 42.5813 176.882 42.3897 176.8C42.1981 176.717 42.0239 176.597 41.8771 176.445C41.7303 176.292 41.6139 176.111 41.5344 175.912C41.455 175.713 41.4141 175.499 41.4141 175.283Z" fill="#C9C9C9"/>
<path d="M38.5362 225.342C35.1004 226.725 31.4488 227.433 27.7658 227.431C25.0331 227.403 22.317 226.984 19.6941 226.184C19.497 226.974 19.3906 227.786 19.377 228.603V241.626C19.377 244.354 20.4171 246.97 22.2686 248.899C24.1201 250.828 26.6313 251.912 29.2497 251.912C31.8682 251.912 34.3794 250.828 36.2309 248.899C38.0824 246.97 39.1225 244.354 39.1225 241.626V228.59C39.0974 227.482 38.8994 226.385 38.5362 225.342Z" stroke="#C9C9C9" stroke-width="2" stroke-linecap="round" stroke-linejoin="round"/>
<path fill-rule="evenodd" clip-rule="evenodd" d="M76.8294 133.733H128.425C131.555 133.733 133.422 136.283 132.614 139.425L112.695 215.767C112.209 217.372 111.257 218.781 109.972 219.8C108.686 220.819 107.129 221.399 105.514 221.459H53.9485C50.8251 221.459 48.9523 218.909 49.76 215.767L69.6732 139.425C70.157 137.823 71.1044 136.416 72.3855 135.397C73.6667 134.378 75.2189 133.797 76.8294 133.733Z" fill="#6367FD"/>
<path fill-rule="evenodd" clip-rule="evenodd" d="M91.0707 129.806H120.354C120.679 129.777 121.006 129.835 121.304 129.974C121.601 130.113 121.861 130.328 122.057 130.599C122.254 130.871 122.381 131.189 122.428 131.526C122.474 131.862 122.438 132.206 122.323 132.524L120.898 137.71C120.657 138.477 120.196 139.148 119.578 139.634C118.96 140.12 118.214 140.397 117.44 140.428H88.1567C87.832 140.455 87.5061 140.396 87.2092 140.256C86.9122 140.117 86.6537 139.902 86.4576 139.631C86.2614 139.36 86.1339 139.042 86.0868 138.707C86.0397 138.371 86.0745 138.028 86.1881 137.71L87.6122 132.524C87.855 131.758 88.3161 131.087 88.934 130.602C89.5519 130.116 90.2973 129.838 91.0707 129.806Z" fill="#3B4161"/>
<path fill-rule="evenodd" clip-rule="evenodd" d="M47.709 172.646C49.9902 171.271 52.4128 170.169 54.9311 169.361C58.5631 166.244 61.2317 153.931 62.1951 153.152C63.1584 152.373 66.3835 152.878 66.4793 154.044C66.8981 158.314 66.6767 163.301 63.0447 167.758C73.6116 160.758 74.4134 157.653 77.3214 159.997C80.2294 162.341 81.2765 173.774 78.7813 178.5C71.9123 191.541 53.8421 193.306 48.3133 193.393C46.9371 187.19 46.9371 179.69 47.709 172.646Z" fill="#F77F89"/>
<path d="M24.6113 422.451L65.4667 421.086" stroke="#737999" stroke-width="1.7" stroke-linecap="round" stroke-linejoin="round"/>
<path d="M77.2785 256.002L64.7969 426.777" stroke="#737999" stroke-width="1.7" stroke-linecap="round" stroke-linejoin="round"/>
<path d="M65.8086 413.056L91.6095 416.211" stroke="#737999" stroke-width="1.7" stroke-linecap="round" stroke-linejoin="round"/>
<path d="M98.473 343.758C96.8939 343.923 95.2994 343.721 93.8043 343.167C92.3091 342.612 90.9507 341.719 89.8269 340.552C88.7031 339.384 87.842 337.971 87.3055 336.415C86.769 334.859 86.5705 333.198 86.7244 331.553C86.8783 329.907 87.3807 328.317 88.1954 326.898C89.0101 325.479 90.1168 324.266 91.4358 323.347C92.7548 322.427 94.2531 321.824 95.8229 321.581C97.3926 321.337 98.9946 321.46 100.513 321.939" stroke="#737999" stroke-width="1.7" stroke-linecap="round" stroke-linejoin="round"/>
<path d="M70.3849 351.408C67.3055 351.231 64.4138 349.809 62.3249 347.445C60.236 345.081 59.1148 341.961 59.1998 338.749C59.2848 335.537 60.5692 332.486 62.7799 330.246C64.9905 328.005 67.953 326.752 71.0371 326.752C71.436 326.752 71.813 326.771 72.168 326.808" stroke="#737999" stroke-width="1.7" stroke-linecap="round" stroke-linejoin="round"/>
<path d="M79.182 163.388L69.9375 171.1" stroke="#A7464F" stroke-width="3.41" stroke-linecap="round" stroke-linejoin="round"/>
<path d="M80.1693 171.368L68.4297 181.093" stroke="#A7464F" stroke-width="3.41" stroke-linecap="round" stroke-linejoin="round"/>
<path fill-rule="evenodd" clip-rule="evenodd" d="M131.723 171C131.58 168.432 132.322 162.728 134.512 157.285C135.314 155.315 135.361 152.074 132.543 152.074C129.336 152.074 125.046 158.781 127.158 166.767C129.27 174.753 131.933 174.628 131.723 171Z" fill="#F77F89"/>
<path fill-rule="evenodd" clip-rule="evenodd" d="M121.791 155.908C124.34 155.908 132.088 171.879 132.034 173.818C131.981 175.757 131.173 178.705 129.97 178.556C128.767 178.406 118.703 165.059 118.703 160.527C118.703 157.902 119.93 155.908 121.791 155.908Z" fill="#F77F89"/>
<path fill-rule="evenodd" clip-rule="evenodd" d="M118.463 165.084C121.64 165.084 130.017 177.814 130.077 179.273C130.137 180.732 128.444 182.072 127.044 182.134C125.643 182.197 115.633 173.643 115.633 169.666C115.615 167.235 116.668 165.084 118.463 165.084Z" fill="#F77F89"/>
<path fill-rule="evenodd" clip-rule="evenodd" d="M121.395 188.892C122.772 188.823 126.601 185.257 126.601 182.452C126.601 181.349 123.926 178.493 122.586 178.581C121.246 178.668 118.511 184.036 118.565 185.401C118.619 186.766 119.594 188.96 121.395 188.892Z" fill="#F77F89"/>
<path d="M126.602 161.811C129.348 166.574 132.065 172.671 132.035 173.818" stroke="#A7464F" stroke-width="3.41" stroke-linecap="round" stroke-linejoin="round"/>
<path d="M120.385 166.019C124.166 168.987 130.012 178.057 130.06 179.273" stroke="#A94B53" stroke-width="3.41" stroke-linecap="round" stroke-linejoin="round"/>
<path fill-rule="evenodd" clip-rule="evenodd" d="M37.7227 51.4247C37.7227 37.155 48.6785 25.5596 62.2192 25.5596C75.7598 25.5596 86.6917 37.13 86.6917 51.3998C86.6917 65.6696 75.712 77.2649 62.2192 77.2649C48.7263 77.2649 37.7227 65.7007 37.7227 51.4247Z" fill="#F77F89"/>
<path fill-rule="evenodd" clip-rule="evenodd" d="M58.5929 53.2887C58.8562 51.6429 59.7896 50.4273 60.7231 50.5894C61.6565 50.7514 62.1711 52.2102 61.9198 53.856C61.6685 55.5018 60.7231 56.7174 59.7896 56.5616C58.8562 56.4057 58.3356 54.9407 58.5929 53.2887Z" fill="#B5545C"/>
<path fill-rule="evenodd" clip-rule="evenodd" d="M77.0275 54.5231C77.2729 52.9832 78.1584 51.8487 79.0141 51.9983C79.8697 52.1479 80.3663 53.5131 80.127 55.053C79.8876 56.5928 78.9901 57.7211 78.1345 57.5466C77.2788 57.372 76.7822 56.0629 77.0275 54.5231Z" fill="#B5545C"/>
<path fill-rule="evenodd" clip-rule="evenodd" d="M41.462 62.8019C42.916 67.0161 46.5719 88.9163 45.6505 96.871C49.4799 102.918 66.5449 101.235 71.6309 96.1167C69.0999 88.7543 69.0041 83.474 69.9316 77.2649C70.8112 71.4548 40.008 58.6001 41.462 62.8019Z" fill="#F77F89"/>
<path fill-rule="evenodd" clip-rule="evenodd" d="M71.9057 24.9362C72.1151 31.0768 66.7359 36.943 52.1122 39.8543C53.7158 44.162 53.8474 50.6392 45.8594 51.805C36.5431 53.1516 35.7832 40.752 35.7832 40.752L49.7368 23.5772C49.7368 23.5772 71.7022 18.7832 71.9057 24.9362Z" fill="black"/>
<path fill-rule="evenodd" clip-rule="evenodd" d="M67.5131 20.616C66.9147 26.0708 72.9401 39.3182 86.8937 39.6798C96.8143 39.6798 68.0935 15.155 67.5131 20.616Z" fill="black"/>
<path fill-rule="evenodd" clip-rule="evenodd" d="M51.3289 76.3485C49.9886 74.5843 51.9273 66.5423 54.0395 62.858C56.5885 61.2932 65.6295 62.5962 70.2907 58.4193C71.6609 57.1725 72.3969 58.0952 73.462 59.4604C75.3348 61.8543 80.9653 63.0949 83.0715 64.4477C83.3826 67.9387 80.3071 75.9308 78.9788 77.72C76.8965 80.5565 57.8629 80.8121 51.3289 76.3485Z" fill="white"/>
<path d="M55.2706 63.5874C54.038 61.4429 48.6528 51.8486 46.9355 49.4174" stroke="white" stroke-width="3.41" stroke-linecap="round" stroke-linejoin="round"/>
<path d="M52.3872 75.8373C48.7432 75.8373 40.0791 63.9614 39.0918 59.9778" stroke="white" stroke-width="3.41" stroke-linecap="round" stroke-linejoin="round"/>
<path fill-rule="evenodd" clip-rule="evenodd" d="M33.5332 53.5443C33.5332 51.9008 34.001 50.2941 34.8774 48.9275C35.7538 47.561 36.9995 46.4958 38.4569 45.8669C39.9144 45.2379 41.5181 45.0733 43.0653 45.394C44.6125 45.7146 46.0337 46.5061 47.1491 47.6683C48.2646 48.8304 49.0242 50.3111 49.332 51.9231C49.6397 53.5351 49.4818 55.206 48.8781 56.7244C48.2744 58.2429 47.2521 59.5407 45.9405 60.4538C44.6288 61.3669 43.0867 61.8543 41.5092 61.8543C39.3939 61.8543 37.3651 60.9788 35.8693 59.4204C34.3735 57.8619 33.5332 55.7483 33.5332 53.5443Z" fill="#F77F89"/>
<path d="M85.0813 469.156C83.6034 464.288 77.8233 454.75 55.2715 454.519V452.156" stroke="#4C4FD9" stroke-width="1.7" stroke-linecap="round" stroke-linejoin="round"/>
<path d="M61.2305 459.899L63.8692 455.136" stroke="#4C4FD9" stroke-width="1.7" stroke-linecap="round" stroke-linejoin="round"/>
<path d="M67.4414 461.021L69.6912 456.345" stroke="#4C4FD9" stroke-width="1.7" stroke-linecap="round" stroke-linejoin="round"/>
<path d="M62.6309 234.176L90.5739 233.266" stroke="#737999" stroke-width="1.7" stroke-linecap="round" stroke-linejoin="round"/>
<path d="M29.9492 450.179L55.2714 449.75" stroke="#4C4FD9" stroke-width="1.7" stroke-linecap="round" stroke-linejoin="round"/>
<path d="M55.75 447.605L81.7902 447.387" stroke="#4C4FD9" stroke-width="1.7" stroke-linecap="round" stroke-linejoin="round"/>
<path d="M90.1434 453.253L87.75 457.686" stroke="#4C4FD9" stroke-width="1.7" stroke-linecap="round" stroke-linejoin="round"/>
<path d="M94.1336 454.245L91.7402 458.683" stroke="#4C4FD9" stroke-width="1.7" stroke-linecap="round" stroke-linejoin="round"/>
<path d="M98.3954 455.466L96.002 459.905" stroke="#4C4FD9" stroke-width="1.7" stroke-linecap="round" stroke-linejoin="round"/>
<path d="M19.4295 276.293C10.4542 280.208 3.71678 273.232 3.66293 266.319C3.60907 259.405 6.23584 218.155 6.59485 214.04" stroke="#C9C9C9" stroke-width="2" stroke-linecap="round" stroke-linejoin="round"/>
<path d="M113.568 123.434C114.035 109.32 99.7702 102.862 93.9004 100.094" stroke="#C9C9C9" stroke-width="2" stroke-linecap="round" stroke-linejoin="round"/>
<path d="M110.78 264.324C111.899 256.799 111.977 236.439 110.086 228.671" stroke="#C9C9C9" stroke-width="2" stroke-linecap="round" stroke-linejoin="round"/>
</g>
<defs>
<clipPath id="clip0_2957_739">
<rect width="135" height="457" fill="white"/>
</clipPath>
</defs>
</svg>
